<?xml version="1.0" encoding="utf-8"?>
<!-- Generator: Adobe Illustrator 18.1.0, SVG Export Plug-In . SVG Version: 6.00 Build 0)  -->
<!DOCTYPE svg PUBLIC "-//W3C//DTD SVG 1.1//EN" "http://www.w3.org/Graphics/SVG/1.1/DTD/svg11.dtd">
<svg version="1.1" id="レイヤー_1" xmlns="http://www.w3.org/2000/svg" xmlns:xlink="http://www.w3.org/1999/xlink" x="0px"
	 y="0px" width="340px" height="340px" viewBox="0 0 340 340" enable-background="new 0 0 340 340" xml:space="preserve">
<path d="M28.1,255.9V49.5h75.6v187l-0.4,0.1c-23.5,6.8-48.6,13.2-74.6,19.2L28.1,255.9z M29.1,50.5v204.1
	c25.7-5.9,50.4-12.2,73.6-18.9V50.5H29.1z M28.6,258.6V300h74.6v-52.6C73.7,252.9,47.4,256.4,28.6,258.6z M131.8,228V97.1h75.5
	v103.4l-0.3,0.1c-22.9,9.6-47.9,18.8-74.5,27.2L131.8,228z M132.8,98.1v128.6c26.2-8.3,50.9-17.3,73.5-26.8V98.1H132.8z
	 M132.3,241.6V300h74.5v-78.7C182.2,229.5,156.7,236.1,132.3,241.6z M235.5,187.8V49.5h75.6v85.6l-0.1,0.1
	c-15.7,17.8-40.8,35.4-74.7,52.2L235.5,187.8z M236.5,50.5v135.7c33.4-16.6,58.1-33.9,73.6-51.4V50.5H236.5z M236,210.4V300h74.6
	V166.8C291,184.3,264.8,198.6,236,210.4z"/>
</svg>
