<?xml version="1.0" encoding="utf-8"?>
<!-- Generator: Adobe Illustrator 18.1.0, SVG Export Plug-In . SVG Version: 6.00 Build 0)  -->
<!DOCTYPE svg PUBLIC "-//W3C//DTD SVG 1.1//EN" "http://www.w3.org/Graphics/SVG/1.1/DTD/svg11.dtd">
<svg version="1.1" id="レイヤー_1" xmlns="http://www.w3.org/2000/svg" xmlns:xlink="http://www.w3.org/1999/xlink" x="0px"
	 y="0px" width="340px" height="340px" viewBox="105 -145.4 340 340" enable-background="new 105 -145.4 340 340"
	 xml:space="preserve">
<path fill="#221714" d="M330.3,46.2l-3.8-4.7c3.6-2.8,7.8-4.9,12.2-6.1c3.3-0.9,6.5-1.2,9.3-1.4c3-0.2,6.3-0.3,9.5,0.3
	c3.4,0.7,6.5,2.1,9.5,3.4l-2.5,5.5c-1.8-0.8-3.6-1.6-5.5-2.2v0.4c0.1,0.7,0.1,1.4,0.1,2.1v0.1c-0.1,1.1-0.4,2.2-0.8,3.2
	c-0.1,0.1-0.1,0.3-0.2,0.4c-0.1,0.5-0.4,1-0.7,1.4l-1.1,1.3c-0.4,0.4-0.9,0.7-1.4,0.9c-0.6,0.2-1.2,0.3-1.9,0.3
	c-1.5,0-3-0.5-4.4-1.5c-1.1-0.8-1.9-1.8-2.6-2.7c-0.7-0.5-1.2-1.2-1.3-2c-0.1-0.1-0.1-0.3-0.2-0.4c-0.6-0.6-1-1.3-1-2.2l-0.1-1.7
	c-1,0.2-2.1,0.3-3.1,0.6C336.7,42.1,333.2,43.9,330.3,46.2z M233.6,41.2c1.1-0.2,9.5-1.1,10.8-1.1c0.1,0,0.2,0,0.2,0
	c-0.2,0.1-0.5,0.1-0.6,0.2l-1.5,0.5l-0.5,1.5c-0.7,2.1-0.1,4.5,1.4,6.3c1.2,1.4,2.6,2.2,4,2.8c0.7,0.3,1.4,0.7,2.2,1l-0.3,0.7
	c0.9,0.4,1.7,0.6,2.5,0.6c2.5,0,4.6-1.5,5.6-2.2l-0.1-0.1l0.8-0.5l0.1,0.1l1.4-1l1.3-1c0.6-0.7,0.9-1.6,1.1-2.5
	c0.5,0.4,1,0.7,1.6,1.2l2.5,1.9l3.6-4.9l-2.5-1.9c-7-5.4-12.1-9.2-23.1-8.7c-1.5,0.1-10.1,1-11.6,1.2c-5.2,0.9-9.9,3.5-13.4,7.1
	l4.4,4.2C226.1,43.8,229.8,41.8,233.6,41.2z M307.3,102.5c1.4-0.3,4-0.8,5.4-3l1.4-2l-1.7-1.8c-7-7.2-11.4-16.4-12.5-25.8l-6,0.7
	c1.1,9.4,5,18.5,11.3,26.1l-19.4,4.1l1.3,5.9L307.3,102.5z M324.3,133.1l7.4,7.1l-5.5,1.3c-10.8,2.4-22.4,3.7-34.5,3.7
	c-8.5,0-17.1-0.7-25.4-1.9l-2.7-0.4l0.4-6.7l1.2-0.8c3.9-2.9,7.7-3.7,13.9-5l4.1-0.9c0.9-0.2,2.1-0.5,3.4-0.9
	c1.8-0.6,3.9-1.2,5.9-1.6c1.6-0.2,2.7-0.2,3.8-0.2c8.6,0,17.3,2.1,23.4,5.7L324.3,133.1z M315.9,137.4c-5.8-3.2-14.5-5-22.5-4.4
	c-1.4,0.3-3.3,0.9-5,1.4c-1.4,0.4-2.7,0.8-3.8,1l-4.2,0.9c-3.3,0.7-5.5,1.2-7.4,1.8c6.2,0.7,12.6,1.1,18.9,1.1
	C300.1,139.2,308.3,138.6,315.9,137.4z M408,61.6l-2.9,7.8l-2.1-5.7c-4.9,24.9-10.2,48.6-21.9,71.8c-5.5,11-12.1,22.1-22.8,29.7
	c-5.5,3.9-11.8,6.7-18.3,9.4c-9.3,3.9-19,7.7-28.7,11.4c-4.1,1.6-9.2,3.5-14.5,3.9c-0.8,0.1-1.6,0.1-2.4,0.1
	c-7.5,0-14.7-2.7-20.6-4.9c-21-7.8-44.9-16.7-62.4-32.2c-15.4-13.7-24.8-31.6-31.5-49.4l-0.2,1.3c-11.7-1.4-22.8-7.4-30.4-16.4
	c-2.7-3.2-5.1-6.9-7.4-11.3c-5.2-10.2-7.3-20.2-6.5-29.3c-11.4-44.2-18.6-89.4,6-125.2c1.7-2.4,3.5-4.9,5.6-7.3
	c2.3-4.3,5.3-8.1,9.5-11c1.4-0.9,2.9-1.7,4.4-2.6c3.3-2.8,6.7-5.5,10.6-8.4c19.1-14.1,48.5-30.8,80.6-30.8c6.2,0,12.3,0.6,18.1,1.8
	l2.9,0.6c3.1,0.7,6,1.4,8.9,1.4c4.9,0,9.3-1.5,14-3.1c2.4-0.8,4.7-1.6,7.1-2.2c4.4-1.1,9-1.7,13.8-1.7c18.4,0,37.2,8.6,53.5,16.6
	c17.2,8.6,32.3,16.9,42.1,31c10.8,15.7,12.4,35.7,12.5,51.2C425.3-1,420.7,27.1,408,61.6z M172.1,57.1l1.1,3.9
	c0.3-1.7,0.6-3.3,1-4.9C173.5,56.6,172.8,56.9,172.1,57.1z M157,37.8c0.6,0.2,1.2,0.2,1.8,0.4c-0.2-0.6-0.4-1.2-0.7-1.9L157,37.8z
	 M142.2,49.4l0.5-0.8c-0.3,0-0.5,0.1-0.7,0.1C142.1,48.9,142.1,49.1,142.2,49.4z M178.2,98.1c-3-8.6-5.5-17.2-7.8-25.1l-1.5-5.2
	c-1.8-4-3.4-8.9-4.8-14c-0.1-0.2-0.1-0.5-0.2-0.7c-0.5-1.8-1-3.7-1.5-5.5c-0.2-0.5-0.3-0.9-0.5-1.4c-2.4-1.6-5.3-2.5-8.4-2.9
	l-11,16.5c1.1,5.6,3,10.7,5,14.6c2,3.9,4.2,7.3,6.6,10.1C160.2,91.7,168.9,96.5,178.2,98.1z M399.4,52.5c-0.4-1.5-0.7-2.8-1-4.1
	c-0.8-3.4-1.5-6.7-3.6-12.3c-1.7-4.6-7-17.1-9-20.9c-3.6-6.7-9.1-11.1-15.5-14.7L370.2,4c-16-0.3-31.9,1.4-47.4,5.3l-1.6-6.6
	c13.9-3.4,28.2-5.2,42.6-5.4c-3.3-1.5-6.8-2.8-10.3-4.2c-15.9-6.2-33.8-13.3-42.8-34L262.7,3l-2.8-16.8c-4.5,6-9.9,11.4-15.7,16.2
	c2.6,0.2,5.3,0.4,8,0.7c2.5,0.3,5.2,0.6,7.9,1.5l0.3,0.1l1.3-0.4l1.4,1.9L262.4,7v0.5l-0.6,0.1l-1.2,1.3l0.8,2.7
	c-0.3,0.1-0.8,0.2-1.5,0.2c-0.8,0-1.7-0.1-2.5-0.7l-0.3-0.2c-1.8-0.5-3.8-0.8-5.7-1c-5.2-0.6-10.5-0.9-15.8-1.1
	c-5.5,3.6-11.2,6.9-17.4,9.4l-3.8,1.6l-1.2-16.5c-9.1,7.3-16.7,16.4-22.5,26.4c3.3,0.9,6.6,1.8,9.8,2.9c0.4-1.1,1-2.2,1.9-3.1
	c1.9-2,4.6-2.7,7-3.2c25.7-5.1,53.8-2.3,77.7,7.7l1.5,0.6l5.6-0.5l0.4,0.5c2.7-0.2,5.4,0.4,7.9,1.4c1-2.2,2.5-4.3,4.7-5.6
	c1.9-1.2,4-1.8,5.9-2.4c14-4.1,29.2-6,46.7-6c5.1,0,10.3,0.2,15.4,0.5c5.4,0.3,10.9,1.2,14.2,5.2l0.7,0.9l-0.2,4
	c-0.3,7.1-0.8,15-4.6,22.2c-1.3,2.4-2.8,4.3-4.6,5.7c-3.8,3-8.7,3.8-13.4,4.4c-6.6,0.8-13.3,1.4-20,1.7c-2.3,0.1-4.5,0.2-6.8,0.2
	c-7.7,0-13.8-0.8-19.3-2.5c-9.7-3-17-9.4-19.4-16.9c-0.6-1.9-0.8-3.7-0.7-5.5c-2.5-1-5.2-1.5-7.8-1.2l-4.7,0.4l-0.5,4.4
	c-0.2,2.1-0.4,4.1-1.1,6.2c-2,6.4-8,11.8-15.6,14.1c-3.7,1.1-7.4,1.5-11,1.8l-8.1,0.8c-5.5,0.6-11.2,1.1-16.9,1.1
	c-2.7,0-5.3-0.1-8-0.4c-6.8-0.8-16.4-3.1-23.6-9.7c-2.1-1.9-3.4-3.7-4.2-5.7c-0.6-1.6-0.8-3.3-0.9-4.7c-0.2-3.5,0.1-7,0.6-10.4
	c-3.8-1.3-7.6-2.4-11.5-3.3c-5.9,11.8-9.4,24.8-9.8,37.8l-0.1,4.2c7.3,24.9,16.2,52,37.7,71c16.7,14.8,40,23.5,60.5,31.1
	c6.3,2.3,13.5,5,20.4,4.4c4.5-0.4,8.9-2,12.8-3.5c9.6-3.6,19.2-7.4,28.5-11.3c6.4-2.7,12.1-5.2,17.1-8.7c9-6.4,14.9-15.6,20.8-27.4
	c12.5-24.7,17.5-50.4,22.9-77.5l0.5-2.6L399.4,52.5z M207.8,35.4l-2.4,5.6c-0.2-0.1-0.3-0.1-0.5-0.2c-0.3,2.6-0.5,5.2-0.3,7.8
	c0.1,1,0.2,2.1,0.5,3c0.4,1.1,1.2,2.1,2.6,3.4c6.1,5.5,14.3,7.5,20.2,8.1c2.5,0.3,4.9,0.4,7.4,0.4c5.4,0,11-0.5,16.3-1l8.1-0.8
	c3.5-0.4,6.8-0.7,9.9-1.6c5.7-1.7,10.2-5.6,11.6-10.1c0.5-1.5,0.7-3.2,0.9-5l0.7-6.2c-14.6-5.8-30.8-8.9-47-8.9
	c-8.4,0-16.8,0.9-25,2.5c-1.5,0.3-3.1,0.7-3.9,1.5c-0.3,0.2-0.4,0.6-0.6,1C206.9,35.1,207.4,35.3,207.8,35.4z M307.6,45.6
	c1.8,5.6,7.7,10.6,15.5,13c4.8,1.5,10.4,2.2,17.5,2.2c2.1,0,4.3-0.1,6.5-0.2c6.4-0.3,13-0.8,19.5-1.6c3.9-0.4,7.8-1.1,10.4-3.1
	c1.1-0.9,2.1-2.1,3-3.8c3.2-6,3.6-13.2,3.9-19.6L384,31c-2.1-1.6-5.7-2-9.1-2.2c-5-0.3-10-0.5-15-0.5c-16.8,0-31.6,1.9-45,5.7
	c-1.6,0.5-3.2,0.9-4.4,1.7C307,37.9,306.5,42.5,307.6,45.6z M405.7,49.8c-0.3,0-0.5,0-0.8,0c0.2,0.4,0.3,0.9,0.4,1.4
	C405.5,50.7,405.6,50.3,405.7,49.8z"/>
</svg>
